<svg xmlns="http://www.w3.org/2000/svg" x="0px" y="0px"
width="48" height="48"
viewBox="0 0 172 172"
style=" fill:#000000;"><g fill="none" fill-rule="none" stroke="none" stroke-width="1" stroke-linecap="butt" stroke-linejoin="miter" stroke-miterlimit="10" stroke-dasharray="" stroke-dashoffset="0" font-family="none" font-weight="none" font-size="none" text-anchor="none" style="mix-blend-mode: normal"><path d="M0,172v-172h172v172z" fill="none" fill-rule="nonzero"></path><g fill-rule="evenodd"><path d="M82.06908,11.77483c2.43308,-1.36525 5.42875,-1.36525 7.85825,0c12.02208,6.74742 48.19942,27.05775 60.22508,33.80517c2.43308,1.36167 3.93092,3.88433 3.93092,6.61483c0,13.49483 0,54.11192 0,67.60675c0,2.7305 -1.49783,5.25317 -3.93092,6.61842c-12.02208,6.74742 -48.19942,27.05775 -60.22508,33.80517c-2.43308,1.36525 -5.42875,1.36525 -7.85825,0c-12.02208,-6.74742 -48.19942,-27.05775 -60.22508,-33.80517c-2.4295,-1.36525 -3.92733,-3.88433 -3.92733,-6.61483c0,-13.49483 0,-54.11192 0,-67.60675c0,-2.7305 1.49783,-5.25317 3.93092,-6.61842c12.0185,-6.74742 48.203,-27.05775 60.2215,-33.80517z" fill="#00549d"></path><path d="M19.006,123.281c-0.95317,-1.27567 -1.08933,-2.48683 -1.08933,-4.11725c0,-13.416 0,-53.80017 0,-67.21975c0,-2.71617 1.49425,-5.2245 3.92017,-6.579c11.97908,-6.708 48.03458,-26.90008 60.01367,-33.61167c2.42592,-1.35808 5.71183,-1.32942 8.13775,0.02867c11.97908,6.708 47.91275,26.72808 59.89183,33.43608c0.9675,0.54467 1.70567,1.20042 2.365,2.064z" fill="#0086d4"></path><path d="M86,35.83333c27.68842,0 50.16667,22.47825 50.16667,50.16667c0,27.68842 -22.47825,50.16667 -50.16667,50.16667c-27.68842,0 -50.16667,-22.47825 -50.16667,-50.16667c0,-27.68842 22.47825,-50.16667 50.16667,-50.16667zM86,60.91667c13.84242,0 25.08333,11.23733 25.08333,25.08333c0,13.84242 -11.24092,25.08333 -25.08333,25.08333c-13.84242,0 -25.08333,-11.24092 -25.08333,-25.08333c0,-13.846 11.23733,-25.08333 25.08333,-25.08333z" fill="#ffffff"></path><path d="M152.23792,47.31792c1.849,1.73075 1.81317,4.33942 1.81317,6.39267c0,13.59875 -0.11467,52.27725 0.03225,65.876c0.01433,1.419 -0.45508,2.91325 -1.15742,4.03842l-68.38433,-37.625z" fill="#0075c0"></path><path d="M111.08333,75.25h7.16667v21.5h-7.16667zM136.16667,75.25h7.16667v21.5h-7.16667z" fill="#ffffff"></path><path d="M103.91667,82.41667h21.5v7.16667h-21.5zM129,82.41667h21.5v7.16667h-21.5z" fill="#ffffff"></path></g></g></svg>