<svg xmlns="http://www.w3.org/2000/svg" x="0px" y="0px"
width="48" height="48"
viewBox="0 0 226 226"
style=" fill:#000000;"><g fill="none" fill-rule="nonzero" stroke="none" stroke-width="1" stroke-linecap="butt" stroke-linejoin="miter" stroke-miterlimit="10" stroke-dasharray="" stroke-dashoffset="0" font-family="none" font-weight="none" font-size="none" text-anchor="none" style="mix-blend-mode: normal"><path d="M0,226v-226h226v226z" fill="none"></path><g><path d="M107.83496,15.47158c3.19696,-1.79387 7.13313,-1.79387 10.32538,0c15.79646,8.86579 63.33179,35.55262 79.13296,44.41842c3.19696,1.78917 5.16504,5.10383 5.16504,8.69158c0,17.73158 0,71.10054 0,88.83212c0,3.58775 -1.96808,6.90242 -5.16504,8.69629c-15.79646,8.86579 -63.33179,35.55263 -79.13296,44.41842c-3.19696,1.79387 -7.13313,1.79387 -10.32538,0c-15.79646,-8.86579 -63.33179,-35.55263 -79.13296,-44.41842c-3.19225,-1.79387 -5.16033,-5.10383 -5.16033,-8.69158c0,-17.73158 0,-71.10054 0,-88.83212c0,-3.58775 1.96808,-6.90242 5.16504,-8.69629c15.79175,-8.86579 63.3365,-35.55262 79.12825,-44.41842z" fill="#00c853"></path><path d="M24.973,161.9855c-1.25242,-1.67617 -1.43133,-3.26758 -1.43133,-5.40987c0,-17.628 0,-70.69092 0,-88.32362c0,-3.56892 1.96337,-6.86475 5.15092,-8.6445c15.73996,-8.814 63.11521,-35.34546 78.85517,-44.16417c3.18754,-1.78446 7.50508,-1.74679 10.69262,0.03767c15.73996,8.814 62.95513,35.11946 78.69508,43.93346c1.27125,0.71567 2.24117,1.57729 3.1075,2.712z" fill="#69f0ae"></path><path d="M113,47.08333c-36.39542,0 -65.91667,29.52125 -65.91667,65.91667c0,36.39542 29.52125,65.91667 65.91667,65.91667c36.39542,0 65.91667,-29.52125 65.91667,-65.91667c0,-36.39542 -29.52125,-65.91667 -65.91667,-65.91667zM113,145.95833c-18.17417,0 -32.95833,-14.78417 -32.95833,-32.95833c0,-18.17417 14.78417,-32.95833 32.95833,-32.95833c18.17417,0 32.95833,14.78417 32.95833,32.95833c0,18.17417 -14.78417,32.95833 -32.95833,32.95833z" fill="#ffffff"></path><path d="M200.03354,62.17354c2.4295,2.27412 2.38242,5.70179 2.38242,8.39967c0,17.86812 -0.15067,68.68988 0.04237,86.558c0.01883,1.8645 -0.59796,3.82788 -1.52079,5.30629l-89.85383,-49.4375z" fill="#00e676"></path><path d="M160.08333,94.16667h4.70833v37.66667h-4.70833zM174.20833,94.16667h4.70833v37.66667h-4.70833z" fill="#ffffff"></path><path d="M150.66667,117.70833h37.66667v4.70833h-37.66667zM150.66667,103.58333h37.66667v4.70833h-37.66667z" fill="#ffffff"></path></g></g></svg>