<svg version="1.1" id="svg3476" xmlns="http://www.w3.org/2000/svg" x="0" y="0" viewBox="0 0 290.2 329.1" xml:space="preserve"><style>.st2{fill:#ebebeb}</style><g id="layer1" transform="translate(-193.633 -276.362)"><g id="g3013" transform="translate(119 276.362)"><path id="polygon2989" fill="#264de4" d="M364.8 0l-26.4 296.2-118.9 32.9L101 296.2 74.6 0z"/><path id="polygon2991" fill="#2965f1" d="M315.8 277.3l22.5-253.1H219.7v279.7z"/><path id="polygon2993" class="st2" d="M135.2 134.1l3.2 36.3h81.3v-36.3z"/><path id="polygon2995" class="st2" d="M219.7 60.5h-91.1l3.3 36.4h87.8z"/><path id="polygon2997" class="st2" d="M219.7 266.2v-37.8l-.1.1-40.5-11-2.6-28.9H140.1l5 57 74.5 20.7z"/><path id="polygon3005" fill="#fff" d="M264.3 170.4l-4.2 47.1-40.5 11v37.8l74.5-20.7.5-6.1 8.6-95.7.8-9.7 6.6-73.6h-91v36.4h51.2l-3.3 37.2h-47.9v36.3z"/></g></g></svg>