<svg xmlns="http://www.w3.org/2000/svg" x="0px" y="0px"
width="48" height="48"
viewBox="0 0 172 172"
style=" fill:#000000;"><g fill="none" fill-rule="nonzero" stroke="none" stroke-width="1" stroke-linecap="butt" stroke-linejoin="miter" stroke-miterlimit="10" stroke-dasharray="" stroke-dashoffset="0" font-family="none" font-weight="none" font-size="none" text-anchor="none" style="mix-blend-mode: normal"><path d="M0,172v-172h172v172z" fill="none"></path><g><path d="M35.83333,43l10.75,89.58333l-28.73475,-28.73475c-4.26058,-4.26058 -5.40367,-10.73567 -2.85233,-16.19667z" fill="#1565c0"></path><path d="M97.89308,22.64308c-3.02792,-3.02792 -7.13083,-4.72642 -11.40933,-4.72642c-2.66958,0 -5.29975,0.66292 -7.65042,1.92783l-43,23.1555v72.89575c0,3.80192 1.50858,7.44617 4.19967,10.13367l6.55033,6.55392h78.83333v-17.91667l25.08333,-39.41667z" fill="#42a5f5"></path><path d="M35.83333,43h76.47908c3.80192,0 7.44617,1.50858 10.13367,4.19967l28.05392,28.05033v57.33333h-25.08333z" fill="#1565c0"></path><path d="M125.41667,132.58333h-78.83333l21.5,21.5h57.33333z" fill="#85cbf8"></path></g></g></svg>