<svg xmlns="http://www.w3.org/2000/svg" x="0px" y="0px"
width="48" height="48"
viewBox="0 0 172 172"
style=" fill:#000000;"><g fill="none" fill-rule="nonzero" stroke="none" stroke-width="1" stroke-linecap="butt" stroke-linejoin="miter" stroke-miterlimit="10" stroke-dasharray="" stroke-dashoffset="0" font-family="none" font-weight="none" font-size="none" text-anchor="none" style="mix-blend-mode: normal"><path d="M0,172v-172h172v172z" fill="none"></path><g><path d="M84.74583,89.21783c-3.57617,-5.76558 -6.1705,-10.54575 -9.76458,-19.54708c-6.07733,-15.20408 36.96208,-28.94258 19.51125,-55.341c7.56442,18.23558 -27.15092,29.50875 -30.37592,44.69492c-2.94908,13.96783 20.61133,30.19317 20.62925,30.19317z" fill="#f44336"></path><path d="M85.56283,61.88417c-0.688,9.01567 7.98725,13.82092 8.23808,20.40708c0.20067,5.36067 -5.18508,9.82908 -5.18508,9.82908c0,0 9.77533,-1.92067 12.82475,-10.09783c3.38625,-9.08017 -6.57183,-15.29725 -5.547,-22.56783c0.95675,-6.9445 21.61108,-19.86242 21.61108,-19.86242c0,0 -30.39025,2.01383 -31.94183,22.29192z" fill="#f44336"></path><g fill="#1565c0"><path d="M114.96767,89.78042c6.28517,-1.41183 11.58492,2.59075 11.58492,7.2025c0,10.39525 -14.40858,20.22075 -14.40858,20.22075c0,0 22.30625,-2.65883 22.30625,-19.72625c0,-11.2875 -10.95425,-14.10758 -19.48258,-7.697zM104.37892,98.16542c0,0 6.95525,-4.95575 8.80783,-6.8155c-17.06742,3.62275 -56.03617,4.11008 -56.03617,0.96392c0,-2.89892 12.56675,-5.8695 12.56675,-5.8695c0,0 -27.85325,-0.40133 -27.85325,7.81525c0,8.56417 36.46042,9.17692 62.51483,3.90583z"></path><path d="M100.10042,105.96275c-16.15725,5.37142 -45.91683,3.655 -37.10183,-3.55825c-4.29283,0 -10.65683,3.45075 -10.65683,6.76892c0,6.65425 32.1855,11.79275 56.0075,2.04967z"></path><path d="M66.95817,117.31475c-5.86233,0 -9.65708,3.77683 -9.65708,6.52883c0,8.56775 34.97333,9.43133 48.83008,0.73458l-8.80783,-5.848c-10.35225,4.55083 -36.3565,5.17792 -30.36517,-1.41542z"></path><path d="M130.00692,131.26467c0,-3.354 -3.78042,-4.93425 -5.13492,-5.69033c7.98367,19.25325 -79.96925,17.759 -79.96925,6.39267c0,-2.58358 6.47508,-5.11342 12.45925,-3.91658l-5.08833,-3.00642c-11.92533,-1.8705 -20.02367,3.37192 -20.02367,7.60025c0,19.71908 97.75692,18.7695 97.75692,-1.37958z"></path><path d="M139.75,138.331c-14.8565,14.67375 -52.52808,20.02008 -90.41108,10.95425c37.883,16.13575 90.23192,7.04842 90.41108,-10.95425z"></path></g></g></g></svg>