<svg xmlns="http://www.w3.org/2000/svg" viewBox="0 0 153.14 98.64"><defs><style>.cls-1{fill:#1a1a1a}</style></defs><g id="Layer_2" data-name="Layer 2"><g id="Layer_1-2" data-name="Layer 1"><g id="layer1"><g id="g3855"><g id="g945"><g id="g984"><g id="g920"><path id="path3804" d="M93.14 80.94h-13V21.13l13-3.58z" class="cls-1"/><g id="g898"><g id="g893"><path id="path19" d="M22.17 36.33a8.9 8.9 0 118.9-8.9 8.91 8.91 0 01-8.9 8.9z" fill="#4d64ae"/></g><path id="path3819" d="M29.14 80.83A26.48 26.48 0 0127.83 90a12.12 12.12 0 01-3.62 5.4 12.33 12.33 0 01-5.64 2.6 36.64 36.64 0 01-7.32.67 22.47 22.47 0 01-4.81-.47 13 13 0 01-3.54-1.27 6 6 0 01-2.14-1.86A3.62 3.62 0 010 92.88a4.26 4.26 0 011.59-3.38 6.47 6.47 0 014.33-1.35 5 5 0 011.87.32 6 6 0 011.43.79 12 12 0 011.16 1.07c.31.4.59.77.83 1.12A7.58 7.58 0 0012.72 93a2.3 2.3 0 001.15.4 1.85 1.85 0 001-.28 2 2 0 00.71-1 7.18 7.18 0 00.4-1.91 23.12 23.12 0 00.16-3.06V40.48l13-3.58z" class="cls-1"/></g><path id="path3802" d="M48.14 37.94V68a6.14 6.14 0 00.47 2.39A6.45 6.45 0 0050 72.24a7 7 0 002 1.27 6.12 6.12 0 002.4.48 4.2 4.2 0 001.61-.4 8.42 8.42 0 001.8-1.12 13.27 13.27 0 001.81-1.66 12.92 12.92 0 001.61-2.11V37.94h13v43h-13v-4a22.47 22.47 0 01-5.43 3.53 13.62 13.62 0 01-5.59 1.28 16.52 16.52 0 01-5.9-1 15.59 15.59 0 01-4.76-2.89 13.56 13.56 0 01-3.17-4.28 12.41 12.41 0 01-1.15-5.29V37.94z" class="cls-1"/><g id="g905"><g id="g890"><path id="path13" d="M105.79 36.33a8.9 8.9 0 118.91-8.9 8.91 8.91 0 01-8.91 8.9z" fill="#ca3c32"/><path id="path25" d="M127.18 36.33a8.9 8.9 0 118.91-8.9 8.91 8.91 0 01-8.91 8.9z" fill="#9259a3"/><path id="path31" d="M116.49 17.8a8.9 8.9 0 118.9-8.9 8.89 8.89 0 01-8.9 8.9z" fill="#399746"/></g><path id="path3823" d="M100.14 40.6l13-3.58v43.92h-13z" class="cls-1"/></g><path id="path3808" d="M140.14 58.77a37.64 37.64 0 00-3.77 1.87 21.89 21.89 0 00-3.46 2.3 12.77 12.77 0 00-2.55 2.67 5.12 5.12 0 00-1 2.94 8.53 8.53 0 00.32 2.34 7 7 0 00.87 1.91 5.15 5.15 0 001.23 1.27 2.67 2.67 0 001.51.48 6.3 6.3 0 003.18-1 41.31 41.31 0 003.62-2.47zm13 22.17h-13v-3.42c-.71.61-1.42 1.17-2.11 1.67a14.2 14.2 0 01-2.3 1.35 13.56 13.56 0 01-2.82.88 19.75 19.75 0 01-3.78.31 16 16 0 01-5.33-.83 12.23 12.23 0 01-4-2.31 10.23 10.23 0 01-2.51-3.53 11 11 0 01-.87-4.37 10.27 10.27 0 01.91-4.42 13.11 13.11 0 012.55-3.57 19.36 19.36 0 013.77-2.86 40.26 40.26 0 014.65-2.31c1.67-.69 3.4-1.32 5.17-1.91l5.25-1.71 1.43-.31v-4.26a11.91 11.91 0 00-.44-3.45 5.82 5.82 0 00-1.15-2.31 4 4 0 00-1.79-1.31 6.6 6.6 0 00-2.34-.4 7.38 7.38 0 00-2.59.4 4.37 4.37 0 00-1.67 1.11 3.94 3.94 0 00-.91 1.59 6.52 6.52 0 00-.28 2 9.51 9.51 0 01-.28 2.35 4.85 4.85 0 01-.91 2A4.47 4.47 0 01126 52.6a6.84 6.84 0 01-2.9.52 7.51 7.51 0 01-2.51-.4 6.16 6.16 0 01-1.91-1.15 6 6 0 01-1.27-1.75 5.59 5.59 0 01-.44-2.18 6.42 6.42 0 011.51-4.1 13.16 13.16 0 014.06-3.3 23.45 23.45 0 015.92-2.14 31.07 31.07 0 017.12-.8 32.21 32.21 0 017.87.84 16.37 16.37 0 015.49 2.34 9.55 9.55 0 013.18 3.66 10.91 10.91 0 011 4.81z" class="cls-1"/></g></g></g></g></g></g></g></svg>