<svg xmlns="http://www.w3.org/2000/svg" x="0px" y="0px"
width="48" height="48"
viewBox="0 0 172 172"
style=" fill:#000000;"><g fill="none" fill-rule="nonzero" stroke="none" stroke-width="1" stroke-linecap="butt" stroke-linejoin="miter" stroke-miterlimit="10" stroke-dasharray="" stroke-dashoffset="0" font-family="none" font-weight="none" font-size="none" text-anchor="none" style="mix-blend-mode: normal"><path d="M0,172v-172h172v172z" fill="none"></path><g><path d="M86,21.5l-21.53583,22.75417l-21.57167,22.71833l-21.3925,22.61083v-68.08333z" fill="#0d91d6"></path><path d="M86,21.5h-0.14333l-21.46417,22.6825l-21.53583,22.75417l-21.35667,22.53917v0.1075v0.3225v60.59417l31.13917,-31.13917l22.145,-22.145l22.18083,-22.18083l22.18083,-22.18083l31.35417,-31.35417z" fill="#f88909"></path><path d="M52.63917,119.36083l-31.13917,31.13917v-60.59417z" fill="#c757bc"></path><path d="M74.78417,97.21583l-22.145,22.145l-31.13917,-29.455v-0.3225l21.3925,-22.61083z" fill="#d3638f"></path><path d="M96.965,75.035l-22.18083,22.18083l-31.89167,-30.24333l21.57167,-22.71833z" fill="#e07063"></path><path d="M119.14583,52.85417l-22.18083,22.18083l-32.50083,-30.78083l21.53583,-22.75417z" fill="#ec7d36"></path><path d="M150.5,21.5l-31.35417,31.35417l-33.14583,-31.35417z" fill="#f88909"></path><path d="M41.24417,68.62083l-12.61333,13.36583l-7.13083,-6.73667v-25.29833z" fill="#0095d5"></path><path d="M53.8575,55.255l-12.61333,13.36583l-19.74417,-18.66917v-25.33417z" fill="#2b88da"></path><path d="M66.50667,41.925l-12.64917,13.33l-32.3575,-30.6375v-3.1175h23.39917z" fill="#557bde"></path><path d="M79.12,28.55917l-12.61333,13.36583l-21.6075,-20.425h41.10083z" fill="#806ee3"></path><path d="M82.41667,89.58333l-60.91667,60.91667h12.00417h29.27583h80.55333z" fill="#0095d5"></path><path d="M92.02,150.5h-29.24l-20.64,-20.60417l14.62,-14.62z" fill="#2b88da"></path><path d="M121.33167,150.5h-29.31167l-35.26,-35.22417l14.62,-14.62z" fill="#557bde"></path><path d="M150.5,150.5h-29.16833l-49.95167,-49.84417l14.62,-14.65583z" fill="#806ee3"></path></g></g></svg>