<svg xmlns="http://www.w3.org/2000/svg" x="0px" y="0px"
width="48" height="48"
viewBox="0 0 226 226"
style=" fill:#000000;"><g fill="none" fill-rule="nonzero" stroke="none" stroke-width="1" stroke-linecap="butt" stroke-linejoin="miter" stroke-miterlimit="10" stroke-dasharray="" stroke-dashoffset="0" font-family="none" font-weight="none" font-size="none" text-anchor="none" style="mix-blend-mode: normal"><path d="M0,226v-226h226v226z" fill="none"></path><g><path d="M113.22129,23.54167c-7.32146,0.02354 -12.39704,0.66858 -18.532,1.72796c-18.11767,3.15458 -21.41821,9.77921 -21.41821,21.98792v18.65912h42.375v9.41667h-43.98525h-20.48125c-12.41117,0 -23.27329,5.84775 -26.71508,19.86446c-3.88908,16.08838 -4.06329,26.16421 0,42.96354c3.08396,12.52888 9.87808,21.922 22.29396,21.922h17.10067v-24.03133c0,-13.96492 12.64658,-27.76033 27.13883,-27.76033h34.0695c11.87912,0 23.54167,-8.76692 23.54167,-20.60837v-40.42575c0,-11.48363 -8.28196,-20.07162 -19.85975,-21.99733c0.28721,-0.02825 -8.26783,-1.74679 -15.52808,-1.71854zM89.75496,42.375c3.86554,0 7.0625,3.18754 7.0625,7.07192c0,3.92204 -3.19696,7.05308 -7.0625,7.05308c-3.94087,0 -7.0625,-3.12633 -7.0625,-7.05308c0,-3.87025 3.12163,-7.07192 7.0625,-7.07192z" fill="#0277bd"></path><path d="M108.65892,202.45833c7.32146,-0.02354 12.39704,-0.66858 18.532,-1.72796c18.11767,-3.15458 21.41821,-9.77921 21.41821,-21.98792v-18.65913h-42.375v-9.41667h43.98996h20.48125c12.41117,0 23.27329,-5.84775 26.71508,-19.86446c3.88908,-16.08837 4.06329,-26.16421 0,-42.96354c-3.08867,-12.52887 -9.88279,-21.922 -22.29867,-21.922h-17.10067v24.03133c0,13.96492 -12.64658,27.76033 -27.13883,27.76033h-34.0695c-11.87913,0 -23.54167,8.76692 -23.54167,20.60837v40.42575c0,11.48362 8.28196,20.07162 19.85975,21.99733c-0.28721,0.02825 8.26783,1.74679 15.52808,1.71854zM132.12996,183.625c-3.86554,0 -7.0625,-3.18754 -7.0625,-7.07192c0,-3.92204 3.19696,-7.05308 7.0625,-7.05308c3.94088,0 7.0625,3.12633 7.0625,7.05308c0,3.87025 -3.12633,7.07192 -7.0625,7.07192z" fill="#ffc107"></path></g></g></svg>