<svg xmlns="http://www.w3.org/2000/svg" viewBox="19 19 106 106" height="144" width="144"><path d="M123.617 70.716l-4.394-2.72a59.613 59.613 0 00-.125-1.28l3.776-3.522c.384-.358.556-.888.452-1.401a1.506 1.506 0 00-.953-1.122l-4.827-1.805a56.156 56.156 0 00-.378-1.246l3.011-4.182a1.512 1.512 0 00-.984-2.377l-5.09-.828a42.893 42.893 0 00-.612-1.143l2.139-4.695a1.506 1.506 0 00-.118-1.468 1.504 1.504 0 00-1.31-.671l-5.166.18a40.822 40.822 0 00-.816-.99l1.187-5.032a1.512 1.512 0 00-1.819-1.82l-5.031 1.186a43.417 43.417 0 00-.992-.816l.181-5.166a1.51 1.51 0 00-2.138-1.429l-4.694 2.14a54.472 54.472 0 00-1.143-.613l-.83-5.091a1.513 1.513 0 00-2.376-.984l-4.185 3.011a45.914 45.914 0 00-1.244-.377l-1.805-4.828a1.509 1.509 0 00-2.522-.503l-3.522 3.779c-.425-.047-.853-.09-1.28-.125l-2.72-4.395a1.512 1.512 0 00-2.571 0l-2.72 4.395c-.428.035-.856.078-1.281.125l-3.523-3.779a1.51 1.51 0 00-2.522.503l-1.805 4.828c-.418.12-.832.247-1.245.377l-4.184-3.011a1.515 1.515 0 00-2.377.984l-.83 5.091c-.384.199-.764.404-1.143.613l-4.694-2.14a1.507 1.507 0 00-1.467.119c-.436.29-.691.787-.671 1.31l.18 5.166c-.334.267-.665.54-.992.816l-5.031-1.186a1.517 1.517 0 00-1.417.403 1.51 1.51 0 00-.403 1.417l1.185 5.032a48.63 48.63 0 00-.814.99l-5.166-.18a1.511 1.511 0 00-1.429 2.139l2.14 4.695a46.02 46.02 0 00-.613 1.143l-5.09.828a1.513 1.513 0 00-.984 2.377l3.011 4.182c-.131.413-.258.828-.378 1.246l-4.828 1.805a1.51 1.51 0 00-.501 2.523l3.777 3.522c-.047.425-.089.853-.125 1.28l-4.394 2.72a1.51 1.51 0 000 2.571l4.394 2.72c.036.428.078.855.125 1.28l-3.777 3.523a1.512 1.512 0 00.501 2.522l4.828 1.805c.12.418.247.833.378 1.246l-3.011 4.183a1.511 1.511 0 00.985 2.376l5.089.828c.199.386.403.766.613 1.145l-2.14 4.693a1.51 1.51 0 00.119 1.468c.292.437.789.692 1.31.671l5.164-.181c.269.336.54.665.816.992l-1.185 5.033c-.12.51.031 1.043.403 1.414.369.373.906.522 1.417.402l5.031-1.185c.327.278.658.548.992.814l-.18 5.167a1.51 1.51 0 002.138 1.428l4.694-2.139c.378.21.758.414 1.143.613l.83 5.088a1.515 1.515 0 002.377.986l4.182-3.013a47.2 47.2 0 001.246.379l1.805 4.826c.183.49.607.853 1.122.953a1.503 1.503 0 001.4-.452l3.523-3.777c.425.049.853.09 1.281.128l2.72 4.394a1.513 1.513 0 002.571 0l2.72-4.394a49.06 49.06 0 001.28-.128l3.522 3.777c.357.384.887.556 1.4.452a1.508 1.508 0 001.122-.953l1.805-4.826a47.2 47.2 0 001.246-.379l4.183 3.013a1.513 1.513 0 002.376-.986l.83-5.088c.384-.199.764-.406 1.143-.613l4.694 2.139a1.51 1.51 0 002.138-1.428l-.18-5.167c.334-.267.665-.536.991-.814l5.031 1.185a1.504 1.504 0 001.416-.402c.372-.371.523-.904.403-1.414l-1.185-5.033c.276-.327.548-.656.814-.992l5.166.181a1.505 1.505 0 001.31-.671c.292-.436.337-.991.118-1.468l-2.139-4.693c.209-.379.414-.759.612-1.145l5.09-.828a1.511 1.511 0 00.984-2.376l-3.011-4.183c.13-.413.257-.828.378-1.246l4.827-1.805c.491-.184.853-.607.953-1.122a1.503 1.503 0 00-.452-1.4l-3.776-3.523c.046-.425.088-.853.125-1.28l4.394-2.72a1.51 1.51 0 00.001-2.571zm-29.409 36.451a3.114 3.114 0 01-2.385-3.699 3.104 3.104 0 013.689-2.389 3.112 3.112 0 012.387 3.696 3.112 3.112 0 01-3.691 2.392zm-1.493-10.098a2.833 2.833 0 00-3.365 2.18l-1.56 7.28A38.104 38.104 0 0172 109.928a38.141 38.141 0 01-16.121-3.552l-1.559-7.28a2.832 2.832 0 00-3.364-2.179l-6.427 1.38a38.133 38.133 0 01-3.323-3.917h31.272c.354 0 .59-.064.59-.386V82.932c0-.322-.236-.386-.59-.386h-9.146v-7.012h9.892c.903 0 4.828.258 6.083 5.275.393 1.543 1.256 6.562 1.846 8.169.588 1.802 2.982 5.402 5.533 5.402h15.583c.177 0 .366-.02.565-.056a38.398 38.398 0 01-3.544 4.158l-6.575-1.413zm-43.252 9.946a3.107 3.107 0 01-3.691-2.389 3.115 3.115 0 012.386-3.699 3.114 3.114 0 011.305 6.088zM37.6 58.91a3.114 3.114 0 01-1.581 4.107 3.106 3.106 0 01-4.101-1.584 3.114 3.114 0 011.581-4.107A3.106 3.106 0 0137.6 58.91zm-3.646 8.643l6.695-2.975a2.838 2.838 0 001.441-3.744l-1.379-3.118h5.423V82.16H35.193a38.308 38.308 0 01-1.458-10.496c0-1.389.075-2.762.219-4.111zm29.38-2.374v-7.205h12.914c.667 0 4.71.771 4.71 3.794 0 2.51-3.101 3.41-5.651 3.41H63.334zm46.932 6.485c0 .956-.035 1.902-.105 2.841h-3.926c-.393 0-.551.258-.551.643v1.803c0 4.244-2.393 5.167-4.49 5.402-1.997.225-4.211-.836-4.484-2.058-1.178-6.626-3.141-8.041-6.241-10.486 3.847-2.443 7.85-6.047 7.85-10.871 0-5.209-3.571-8.49-6.005-10.099-3.415-2.251-7.196-2.702-8.216-2.702H43.495c5.506-6.145 12.968-10.498 21.408-12.082l4.786 5.021a2.83 2.83 0 004.006.092l5.355-5.122c11.221 2.089 20.721 9.074 26.196 18.657l-3.666 8.28a2.841 2.841 0 001.442 3.744l7.058 3.135c.122 1.253.186 2.519.186 3.802zm-40.575-41.88a3.105 3.105 0 014.394.101 3.115 3.115 0 01-.103 4.401 3.103 3.103 0 01-4.394-.102 3.116 3.116 0 01.103-4.4zm36.38 29.277a3.105 3.105 0 014.1-1.583 3.114 3.114 0 011.581 4.107 3.105 3.105 0 01-4.101 1.584 3.117 3.117 0 01-1.58-4.108z"/></svg>