<svg xmlns="http://www.w3.org/2000/svg" x="0px" y="0px"
width="48" height="48"
viewBox="0 0 172 172"
style=" fill:#000000;"><g fill="none" fill-rule="nonzero" stroke="none" stroke-width="1" stroke-linecap="butt" stroke-linejoin="miter" stroke-miterlimit="10" stroke-dasharray="" stroke-dashoffset="0" font-family="none" font-weight="none" font-size="none" text-anchor="none" style="mix-blend-mode: normal"><path d="M0,172v-172h172v172z" fill="none"></path><g><path d="M21.5,35.83333c0,-7.91558 6.41775,-14.33333 14.33333,-14.33333h100.33333c7.91558,0 14.33333,6.41775 14.33333,14.33333v100.33333c0,7.912 -6.41775,14.33333 -14.33333,14.33333h-100.33333c-7.91558,0 -14.33333,-6.42133 -14.33333,-14.33333z" fill="#ff6d00"></path><path d="M21.5,35.83333v42.88175l14.33333,14.33333c0,0 39.96492,46.15692 71.66667,14.45158c31.70175,-31.70533 -14.26525,-68.08333 -14.26525,-68.08333l-17.93458,-17.91667h-39.46683c-7.91558,0 -14.33333,6.41417 -14.33333,14.33333z" fill="#e64a19"></path><path d="M93.23475,39.41667c40.95392,27.5845 27.70633,58.00342 27.70633,58.00342c0,0 11.64583,13.02183 6.93733,24.41325c0,0 -4.80167,-7.9765 -12.857,-7.9765c-7.7615,0 -12.32667,7.9765 -27.95,7.9765c-34.787,0 -51.23808,-28.78492 -51.23808,-28.78492c31.34342,20.425 52.74308,5.95908 52.74308,5.95908c-14.12192,-8.11983 -45.57642,-48.84083 -45.57642,-48.84083c26.15475,22.05542 39.41667,28.66667 39.41667,28.66667c-6.74383,-5.5255 -28.66667,-32.25 -28.66667,-32.25c15.136,15.18617 47.68342,37.18783 47.68342,37.18783c8.54267,-23.44933 -8.19867,-44.3545 -8.19867,-44.3545z" fill="#ffffff"></path></g></g></svg>